# xmcd
#
# Track frame offsets: 
#        150
#        8767
#        19745
#        29963
#        43312
#        55054
#        65344
#        74635
#        86680
#        98192
#        109168
#        123060
#        135689
#        150691
#
# Disc length: 2176 seconds
#
# Revision: 0
# Processed by: cddbd v1.5.2PL0 Copyright (c) Steve Scherf et al.
# Submitted via: ExactAudioCopy v0.99pb5
#
DISCID=c2087e0e
DTITLE=Eula Cooper - Let Our Love Grow Higher
DYEAR=2017
DGENRE=Soul
TTITLE0=Shake Daddy Shake
TTITLE1=I Can't Help If I Love You
TTITLE2=Try
TTITLE3=Love Makes Me Do Foolish
TTITLE4=That's How Much I Love You
TTITLE5=Heavenly Father
TTITLE6=Since I Fell For You
TTITLE7=Let Our Love Grow Higher
TTITLE8=Beggars Can't Be Choosey
TTITLE9=Standing By Love
TTITLE10=I Need You More
TTITLE11=My Man Is More (Than You'll Ever Be)
TTITLE12=Mr. Henry
TTITLE13=Have Faith In Me
EXTD=
EXTT0=
EXTT1=
EXTT2=
EXTT3=
EXTT4=
EXTT5=
EXTT6=
EXTT7=
EXTT8=
EXTT9=
EXTT10=
EXTT11=
EXTT12=
EXTT13=
PLAYORDER=
